<?xml version="1.0" encoding="UTF-8"?>
<svg version="1.1" xmlns="http://www.w3.org/2000/svg" width="493" height="217">
<path d="M0 0 C1.10835205 -0.00644531 2.2167041 -0.01289063 3.35864258 -0.01953125 C20.25016421 0.24151612 32.04202335 4.82319316 43.86328125 16.83984375 C46.05582876 18.74890076 46.05582876 18.74890076 48.7265625 18.484375 C51.58614089 17.34054365 53.08928887 15.99819044 55.25 13.8125 C68.38760415 1.75529093 85.96997834 -0.56929842 103.19921875 0.0390625 C118.07398114 1.07397774 131.99874454 8.95752197 145.37109375 14.94140625 C159.4439468 21.19525476 173.40113958 25.47568817 188.78222656 26.6784668 C194.62014104 27.19855546 199.74927218 28.18755377 204.15625 32.3671875 C204.91421875 33.36105469 204.91421875 33.36105469 205.6875 34.375 C209.51143269 39.04774287 213.68882648 42.04728284 218.875 45.0625 C221.1875 46.5 221.1875 46.5 223.1875 48.75 C223.8475 49.3275 224.5075 49.905 225.1875 50.5 C227.89455512 50.35974801 227.89455512 50.35974801 230.1875 49.5 C232.51803342 52.27444454 233.95683079 55.07642502 235.3203125 58.421875 C236.2930032 60.7528275 237.36440483 63.02603578 238.4375 65.3125 C241.03286111 70.98789809 243.2911838 76.77361587 245.51269531 82.6027832 C247.94117468 88.95720909 250.54935248 95.23005896 253.1875 101.5 C263.28667198 125.50691316 263.28667198 125.50691316 267.20849609 136.17773438 C269.36149265 142.02796698 271.74651316 147.76524566 274.1875 153.5 C276.635983 159.2703578 279.04991004 165.02092119 281.125 170.9375 C282.55400962 174.96053512 284.22063483 178.77382736 286.0625 182.625 C288.49840959 187.813736 290.6177751 193.05022798 292.5625 198.4375 C292.82530762 199.14729004 293.08811523 199.85708008 293.35888672 200.58837891 C294.80741596 204.7004898 295.47826142 208.0762727 295.1875 212.5 C286.4864363 216.85053185 271.52829788 214.61916477 261.8895359 214.57533646 C258.94512578 214.56202224 256.00075486 214.55512712 253.05632019 214.5496521 C248.77467991 214.54121816 244.49305571 214.53039204 240.21142578 214.51776123 C228.70998313 214.48538299 217.20851411 214.47924591 205.70703125 214.4765625 C204.51506763 214.4762566 203.32310402 214.4759507 202.09502029 214.47563553 C176.00342755 214.47287309 149.91326297 214.60103528 123.82260132 214.81738281 C119.07247951 214.85672176 114.32236072 214.89137427 109.57217407 214.921875 C103.97415931 214.95819676 98.37630973 215.00423252 92.77843666 215.05806351 C90.7216179 215.0764262 88.66476781 215.09159899 86.60790062 215.10334396 C83.7950695 215.12015552 80.98261472 215.14909061 78.16992188 215.18115234 C76.9492601 215.18439262 76.9492601 215.18439262 75.70393848 215.18769836 C70.87163016 215.25859932 66.83246124 216.02255821 62.1875 217.5 C57.71199505 217.89069939 53.24103676 217.82463138 48.75 217.8125 C47.56083984 217.82861328 46.37167969 217.84472656 45.14648438 217.86132812 C39.32988063 217.86455778 34.66559081 217.66318222 29.35797787 215.25823975 C20.90973705 212.30691181 10.50148309 213.36426026 1.66967773 213.40234375 C-0.32512787 213.40458682 -2.31993348 213.40682948 -4.31473911 213.40905762 C-6.44370233 213.41240879 -8.57264545 213.41826093 -10.70160103 213.42483521 C-15.22822434 213.43863208 -19.75483822 213.44431419 -24.28147888 213.44897461 C-35.57383754 213.46185307 -46.86616986 213.48585391 -58.1585083 213.51037598 C-69.16946855 213.53409907 -80.1804233 213.55339975 -91.19140625 213.5625 C-91.96741448 213.56314201 -92.74342271 213.56378403 -93.54294634 213.5644455 C-117.25259463 213.58114864 -140.95712745 213.43493991 -164.66440845 213.09428024 C-166.89166565 213.06265164 -169.11894011 213.03265608 -171.34622383 213.00296021 C-175.43528849 212.94769394 -179.52414164 212.88304079 -183.61303711 212.81640625 C-184.82855947 212.79968872 -186.04408184 212.78297119 -187.29643822 212.76574707 C-188.39723528 212.74580688 -189.49803234 212.7258667 -190.63218689 212.70532227 C-191.59045852 212.68977798 -192.54873014 212.6742337 -193.53604031 212.65821838 C-195.8125 212.5 -195.8125 212.5 -197.8125 211.5 C-196.51001973 205.03295865 -194.71538244 199.0365164 -192.375 192.875 C-192.07529297 192.06804687 -191.77558594 191.26109375 -191.46679688 190.4296875 C-189.7070695 185.72690198 -187.79523464 181.1138771 -185.8125 176.5 C-184.90292591 174.10934952 -184.00785138 171.71314745 -183.125 169.3125 C-180.78574519 163.00069994 -178.32972683 156.74281826 -175.8125 150.5 C-172.83186677 143.10204575 -169.96495672 135.67161068 -167.1875 128.1953125 C-165.8506445 124.60251333 -164.49511424 121.017739 -163.125 117.4375 C-162.74988281 116.45652344 -162.37476563 115.47554688 -161.98828125 114.46484375 C-161.14276963 112.33280613 -160.25914348 110.21573942 -159.3515625 108.109375 C-157.75936857 104.37539736 -156.29402963 100.61458662 -154.875 96.8125 C-154.61340088 96.11479492 -154.35180176 95.41708984 -154.08227539 94.69824219 C-152.54819087 90.57524248 -151.10658406 86.43555815 -149.75 82.25 C-147.76111906 76.18514083 -145.37102485 70.3449059 -142.8125 64.5 C-142.30203125 63.32050781 -141.7915625 62.14101563 -141.265625 60.92578125 C-140.48445313 59.16814453 -140.48445313 59.16814453 -139.6875 57.375 C-139.21054688 56.29992188 -138.73359375 55.22484375 -138.2421875 54.1171875 C-136.8125 51.5 -136.8125 51.5 -133.8125 49.5 C-132.843125 49.2525 -131.87375 49.005 -130.875 48.75 C-126.04875314 47.48647614 -121.78328468 45.04804015 -117.38671875 42.7421875 C-114.8125 41.5 -114.8125 41.5 -112.8125 41.5 C-112.544375 40.901875 -112.27625 40.30375 -112 39.6875 C-110.81332594 37.50152146 -109.71650887 36.08667406 -107.8125 34.5 C-107.1525 34.5 -106.4925 34.5 -105.8125 34.5 C-105.73 33.88125 -105.6475 33.2625 -105.5625 32.625 C-104.8125 30.5 -104.8125 30.5 -103.26171875 29.41015625 C-100.54179188 28.39940193 -98.00978343 28.16722423 -95.12792969 27.96972656 C-77.35561359 26.72943922 -59.69865597 19.80583558 -44.03515625 11.5234375 C-29.47772557 3.83091238 -16.60154367 0.0910859 0 0 Z M-35.43554688 11.31494141 C-68.33212856 27.71592821 -68.33212856 27.71592821 -86.04760742 30.54174805 C-94.0920359 31.83222224 -100.62502778 33.91960053 -106.8125 39.5 C-108.47984397 42.18926447 -109.08266256 43.56983782 -109.8125 46.5 C-110.43400782 48.50108796 -111.05943944 50.500959 -111.6875 52.5 C-112.01105469 53.57668945 -112.33460937 54.65337891 -112.66796875 55.76269531 C-113.7693386 59.35906255 -114.93344286 62.92610087 -116.12890625 66.4921875 C-116.45259438 67.45933182 -116.45259438 67.45933182 -116.78282166 68.4460144 C-117.4584873 70.46431033 -118.13543894 72.48217182 -118.8125 74.5 C-120.07972277 78.28223532 -121.34582699 82.06484452 -122.61132812 85.84765625 C-123.24459311 87.74059979 -123.87786644 89.63354118 -124.51293945 91.52587891 C-127.09395438 99.21850938 -129.58707416 106.92872933 -131.95239258 114.69042969 C-134.82971024 124.08928624 -138.10589728 133.35704168 -141.375 142.625 C-143.65292831 149.08780456 -145.81339388 155.56004319 -147.76953125 162.12890625 C-148.60251274 164.82127713 -149.47670259 167.48572226 -150.38671875 170.15234375 C-150.80135376 171.37026611 -150.80135376 171.37026611 -151.22436523 172.61279297 C-151.77214155 174.213838 -152.32483527 175.81321128 -152.88305664 177.41064453 C-153.1330542 178.1426709 -153.38305176 178.87469727 -153.640625 179.62890625 C-153.8665332 180.27931885 -154.09244141 180.92973145 -154.32519531 181.59985352 C-154.97811151 183.81882913 -154.97811151 183.81882913 -154.8125 187.5 C-141.43063577 191.46293783 -123.91350433 188.96642961 -110.25 187.25 C-108.93660645 187.08612793 -108.93660645 187.08612793 -107.59667969 186.91894531 C-91.55094887 184.67713254 -76.24892889 180.64586979 -60.9375 175.4375 C-33.44752397 166.1510319 -1.81655978 158.85671716 26.125 170.875 C27.82669822 171.72205632 29.51557133 172.59560199 31.1875 173.5 C32.31478516 174.10521484 32.31478516 174.10521484 33.46484375 174.72265625 C38.0416284 177.37327082 41.03280817 180.26088285 44.1875 184.5 C44.8475 184.17 45.5075 183.84 46.1875 183.5 C46.25754251 162.70769825 46.31046483 141.91541591 46.34293652 121.12302017 C46.35841359 111.46901763 46.37951916 101.81508834 46.41381836 92.16113281 C46.443695 83.74796365 46.46306889 75.33484754 46.46976548 66.92162681 C46.47368069 62.46577372 46.48289938 58.01007239 46.50469017 53.55426788 C46.52502794 49.36167586 46.53133932 45.16929835 46.52682304 40.97666168 C46.52764946 39.43672521 46.53363132 37.89678168 46.54511642 36.35688782 C46.56001863 34.2560728 46.55646259 32.15607021 46.54826355 30.05523682 C46.55102893 28.87902897 46.55379431 27.70282112 46.55664349 26.49097061 C46.15307307 23.22105718 45.51005259 21.80493606 43.1875 19.5 C42.5275 19.5 41.8675 19.5 41.1875 19.5 C41.1875 18.84 41.1875 18.18 41.1875 17.5 C40.5275 17.5 39.8675 17.5 39.1875 17.5 C39.1875 16.84 39.1875 16.18 39.1875 15.5 C37.05175471 13.89219174 34.93493098 12.43560387 32.6875 11 C31.78644531 10.39478516 31.78644531 10.39478516 30.8671875 9.77734375 C26.43853738 6.92227782 22.34897091 5.46508092 17.1875 4.5 C15.95773438 4.25636719 14.72796875 4.01273437 13.4609375 3.76171875 C-3.69565548 1.23464544 -19.94724064 3.51614939 -35.43554688 11.31494141 Z M58.1875 15.5 C58.1875 16.16 58.1875 16.82 58.1875 17.5 C57.630625 17.726875 57.07375 17.95375 56.5 18.1875 C53.36495588 19.96684936 51.47261841 21.68069806 49.1875 24.5 C48.62232197 27.61316294 48.3956902 30.1862106 48.375 33.3125 C48.35131348 34.2310376 48.32762695 35.1495752 48.30322266 36.09594727 C48.23018279 39.56424273 48.20700835 43.03098131 48.1875 46.5 C48.17400491 48.06803681 48.16014914 49.63607055 48.14599609 51.20410156 C48.10185054 56.44853656 48.07775766 61.69290695 48.0625 66.9375 C48.05954926 67.79163483 48.05659851 68.64576965 48.05355835 69.52578735 C48.04768869 72.036767 48.04988379 74.54761383 48.0546875 77.05859375 C48.05272873 77.78640045 48.05076996 78.51420715 48.04875183 79.2640686 C48.06874318 83.98809226 48.32226277 88.66543972 48.66235352 93.37744141 C49.30347883 102.54689885 49.51644408 111.71437951 49.72265625 120.90234375 C49.76578792 122.7193721 49.80920442 124.5363937 49.85289001 126.35340881 C49.9658485 131.08289396 50.07499718 135.81245922 50.18328857 140.54205322 C50.29497244 145.38941917 50.4103477 150.23669719 50.52539062 155.08398438 C50.7496588 164.55590818 50.9698928 174.02792098 51.1875 183.5 C51.8475 183.5 52.5075 183.5 53.1875 183.5 C53.1875 182.84 53.1875 182.18 53.1875 181.5 C53.8475 181.5 54.5075 181.5 55.1875 181.5 C55.1875 180.84 55.1875 180.18 55.1875 179.5 C57.6625 178.51 57.6625 178.51 60.1875 177.5 C60.1875 176.84 60.1875 176.18 60.1875 175.5 C60.97125 175.273125 61.755 175.04625 62.5625 174.8125 C66.33562344 173.4463691 69.71360922 171.72648157 73.234375 169.81640625 C83.28106812 165.33792003 92.55278474 164.9715458 103.4152832 164.99902344 C106.0885305 164.99998686 108.75881252 164.95846574 111.43164062 164.9140625 C123.70271785 164.82860182 134.52754622 166.72723726 146.1875 170.5 C147.18579834 170.8201709 148.18409668 171.1403418 149.21264648 171.47021484 C151.47789623 172.24246419 153.7076751 173.06901446 155.9375 173.9375 C156.72511719 174.23188965 157.51273437 174.5262793 158.32421875 174.82958984 C161.857374 176.16168099 165.31921337 177.55909847 168.765625 179.10546875 C185.17249408 186.39116746 204.30075702 189.21249782 222.1875 189.5 C224.16556641 189.55800781 224.16556641 189.55800781 226.18359375 189.6171875 C234.4787611 189.79566255 243.16795394 189.86538661 251.1875 187.5 C253.41190963 184.82767366 253.41190963 184.82767366 253.04638672 182.54589844 C252.77205811 181.46356934 252.77205811 181.46356934 252.4921875 180.359375 C252.29077148 179.56208984 252.08935547 178.76480469 251.88183594 177.94335938 C250.80918665 174.16872011 249.5974598 170.4571641 248.3125 166.75 C246.45267308 161.29394153 244.65377074 155.83571117 243 150.3125 C242.0252667 147.09146773 241.01530226 144.09820528 239.6875 141 C237.82673039 136.65820424 236.55673544 132.21905468 235.25 127.68359375 C234.27070859 124.48594573 234.27070859 124.48594573 232.71484375 121.61328125 C230.89747964 117.90883318 229.83749205 114.21679891 228.75 110.25 C227.15798066 104.63565836 225.40609037 99.23263147 223.140625 93.84765625 C221.70580787 90.31353701 220.56127827 86.69402191 219.375 83.0703125 C217.92048085 78.69718584 216.40151305 74.34842692 214.875 70 C214.57996582 69.15937012 214.28493164 68.31874023 213.98095703 67.45263672 C213.36806066 65.70727875 212.754938 63.96200024 212.14160156 62.21679688 C210.50710651 57.56258475 208.87890646 52.90617032 207.25 48.25 C206.65757982 46.55728196 206.06513454 44.8645727 205.47265625 43.171875 C205.04855469 41.96015625 204.62445313 40.7484375 204.1875 39.5 C203.5275 39.5 202.8675 39.5 202.1875 39.5 C201.9709375 38.076875 201.9709375 38.076875 201.75 36.625 C201.35814601 33.6065506 201.35814601 33.6065506 200.1875 31.5 C197.70022812 31.04978594 197.70022812 31.04978594 194.66796875 30.89453125 C193.51014893 30.80204102 192.3523291 30.70955078 191.15942383 30.61425781 C189.91056396 30.51467773 188.6617041 30.41509766 187.375 30.3125 C174.67614938 29.12477403 163.90289406 26.38373015 152.1875 21.5 C150.66129751 20.89684374 149.13395822 20.2965557 147.60546875 19.69921875 C141.32513139 17.21235071 135.25789518 14.59473617 129.3125 11.375 C106.6349854 -0.16540415 78.89847462 -0.30574379 58.1875 15.5 Z M-133.8125 52.5 C-136.91028413 57.1322902 -138.6983867 62.12173586 -140.625 67.3125 C-140.9761084 68.24594238 -141.3272168 69.17938477 -141.68896484 70.14111328 C-142.73521022 72.92554511 -143.77495044 75.71231775 -144.8125 78.5 C-145.85334424 81.29197434 -146.89514064 84.08359103 -147.9375 86.875 C-148.29352295 87.83200806 -148.29352295 87.83200806 -148.65673828 88.80834961 C-150.36003655 93.36347913 -152.16580791 97.87124121 -154 102.375 C-155.99470108 107.27568693 -157.67628736 112.17775522 -159.11328125 117.26953125 C-159.80327718 119.47057971 -160.65019301 121.47362787 -161.625 123.5625 C-163.55126917 127.72033384 -165.07254311 131.98405904 -166.5625 136.3125 C-168.79743722 142.7881243 -171.23280851 149.1540812 -173.8125 155.5 C-176.57042213 162.29037789 -179.14083198 169.10724179 -181.51025391 176.04223633 C-182.88258298 180.01001668 -184.36392554 183.90961232 -185.9609375 187.79296875 C-186.32960937 188.69015625 -186.69828125 189.58734375 -187.078125 190.51171875 C-187.80045 192.2539463 -188.53178189 193.99247565 -189.2734375 195.7265625 C-189.6034375 196.52191406 -189.9334375 197.31726563 -190.2734375 198.13671875 C-190.71888916 199.18412231 -190.71888916 199.18412231 -191.17333984 200.25268555 C-192.08606165 203.07244794 -192.08606165 203.07244794 -191.8125 208.5 C-119.8725 208.5 -47.9325 208.5 26.1875 208.5 C26.1875 209.16 26.1875 209.82 26.1875 210.5 C33.71119495 213.52568702 40.56175276 214.92162886 48.625 215 C49.36210205 215.01804688 50.0992041 215.03609375 50.85864258 215.0546875 C55.68043236 215.00473694 59.59379395 214.07087017 64.14834595 212.50091553 C73.97436632 209.6501857 83.72021819 209.92671479 93.88037109 209.95410156 C96.04005167 209.94535222 98.19972578 209.93486173 100.35939026 209.92277527 C106.18280787 209.89506153 112.00601242 209.89150735 117.82948637 209.89249516 C123.9300427 209.88935344 130.03050485 209.8637091 136.13101196 209.84051514 C147.66552507 209.80004782 159.19998176 209.77963622 170.73455489 209.76654124 C183.87373685 209.75063976 197.01282327 209.71221088 210.15194964 209.67194796 C237.16376764 209.58967586 264.17558288 209.53550452 291.1875 209.5 C290.54713422 205.39531136 289.69367159 201.85486437 288.11328125 198.0078125 C287.48752197 196.46806763 287.48752197 196.46806763 286.84912109 194.8972168 C286.40391113 193.81738525 285.95870117 192.73755371 285.5 191.625 C284.5807003 189.3638219 283.66272848 187.10210348 282.74609375 184.83984375 C282.0806958 183.19991455 282.0806958 183.19991455 281.40185547 181.52685547 C279.89408892 177.76865489 278.46006223 173.98779231 277.0625 170.1875 C274.5470568 163.38727642 271.86589163 156.66245885 269.15454102 149.93823242 C266.5612788 143.48711167 264.09753118 136.99748697 261.70703125 130.46875 C260.50070278 127.24735282 259.18665314 124.07798716 257.85546875 120.90625 C254.52573838 112.96703082 251.4190636 104.94289147 248.29296875 96.921875 C245.35424556 89.40536611 242.31313817 81.94051598 239.1875 74.5 C238.33333333 72.41666667 237.47916667 70.33333333 236.625 68.25 C235.81805645 66.33098737 235.00592458 64.41414434 234.1875 62.5 C233.836875 61.67628906 233.48625 60.85257813 233.125 60.00390625 C232.06217067 57.57717242 232.06217067 57.57717242 230.1875 54.5 C228.1339246 53.75015508 228.1339246 53.75015508 226.1875 53.5 C228.47219311 60.50687729 230.96961911 67.41421046 233.5625 74.3125 C234.12324219 75.81780273 234.12324219 75.81780273 234.6953125 77.35351562 C236.9748166 83.43089213 239.38914227 89.43423368 241.90625 95.41674805 C244.18929488 100.91075981 246.33697379 106.45789679 248.5 112 C251.79920084 120.43073478 255.11820951 128.85205322 258.5 137.25 C261.07544188 143.6551574 263.56319 150.08553038 265.96777344 156.55664062 C270.12033211 167.72403723 274.43149118 178.82876951 279.05859375 189.80859375 C283.43469101 200.24157303 283.43469101 200.24157303 285.1875 205.5 C215.5575 205.5 145.9275 205.5 74.1875 205.5 C74.1875 203.52 74.1875 201.54 74.1875 199.5 C69.86277163 193.46641239 62.23450851 190.68330578 55.1875 189.5 C45.54923845 188.84526817 34.67566159 188.97035692 26.58984375 194.79296875 C24.52682071 197.14235088 24.52682071 197.14235088 22.1875 203.5 C-46.1225 203.83 -114.4325 204.16 -184.8125 204.5 C-183.0276344 198.55044798 -181.39253756 193.15492261 -179.0625 187.5 C-178.53571111 186.20603312 -178.00970383 184.91174783 -177.484375 183.6171875 C-177.21173828 182.9478418 -176.93910156 182.27849609 -176.65820312 181.58886719 C-172.46724814 171.23730517 -168.52800256 160.81371529 -164.87109375 150.26220703 C-163.65018301 146.76931926 -162.37662861 143.35354323 -160.8125 140 C-158.99187866 136.09232493 -157.58538829 132.07293599 -156.1875 128 C-153.21260902 119.34191205 -149.8076577 110.87251106 -146.32763672 102.40625 C-144.10274457 96.94301033 -142.18271671 91.53096148 -140.56225586 85.86132812 C-139.56182832 82.71051889 -138.21895491 79.77432741 -136.83398438 76.77685547 C-135.04199852 72.78257724 -133.56468737 68.672562 -132.0625 64.5625 C-131.58876953 63.28922852 -131.58876953 63.28922852 -131.10546875 61.99023438 C-130.80769531 61.18005859 -130.50992188 60.36988281 -130.203125 59.53515625 C-129.93532227 58.8069165 -129.66751953 58.07867676 -129.39160156 57.32836914 C-128.71185079 55.50187307 -128.71185079 55.50187307 -128.8125 53.5 C-130.4625 53.17 -132.1125 52.84 -133.8125 52.5 Z " fill="#154ABC" transform="translate(197.8125,-0.5)"/>
<path d="M0 0 C1.02996094 -0.01224609 2.05992187 -0.02449219 3.12109375 -0.03710938 C20.89831792 -0.07065131 20.89831792 -0.07065131 25.5 4.125 C26.351618 7.105663 26.60291202 9.66782385 26.8125 12.75 C27.07824892 16.99430406 27.07824892 16.99430406 29.0625 20.6875 C31.74391904 22.42679884 34.46606849 23.8652584 37.375 25.1875 C37.375 27.4975 37.375 29.8075 37.375 32.1875 C34.375 33.1875 34.375 33.1875 32.4375 32.25 C31.4165625 31.7240625 31.4165625 31.7240625 30.375 31.1875 C29.055 31.1875 27.735 31.1875 26.375 31.1875 C26.045 35.4775 25.715 39.7675 25.375 44.1875 C20.97243112 43.77475917 16.98327853 43.35823346 12.71484375 42.16015625 C7.78617336 40.89129808 3.00029806 40.9306466 -2.0625 41 C-3.39764648 41.0009668 -3.39764648 41.0009668 -4.75976562 41.00195312 C-10.45056174 41.03936523 -15.97993882 41.46966414 -21.625 42.1875 C-22.59309707 39.02666536 -22.64467126 36.47103261 -22.35546875 33.1875 C-22.27232422 32.22287842 -22.18917969 31.25825684 -22.10351562 30.2644043 C-22.00748047 29.24902588 -21.91144531 28.23364746 -21.8125 27.1875 C-21.71775391 26.15471924 -21.62300781 25.12193848 -21.52539062 24.05786133 C-19.63661271 4.19911271 -19.63661271 4.19911271 -16.625 1.1875 C-11.16942283 -0.27612052 -5.60583964 0.00343075 0 0 Z M-10.625 10.1875 C-12.45899567 13.85549134 -12.05988177 18.20439592 -12.25 22.25 C-12.3015625 23.18650391 -12.353125 24.12300781 -12.40625 25.08789062 C-12.45007813 25.97798828 -12.49390625 26.86808594 -12.5390625 27.78515625 C-12.5798291 28.60508057 -12.6205957 29.42500488 -12.66259766 30.26977539 C-12.84642931 32.19710753 -12.84642931 32.19710753 -11.625 33.1875 C-6.97411285 33.49273962 -6.97411285 33.49273962 -2.625 32.1875 C-1.92513237 29.15642431 -1.92513237 29.15642431 -1.5 25.5625 C-1.24863281 23.74878906 -1.24863281 23.74878906 -0.9921875 21.8984375 C-0.07319768 14.2205398 -0.07319768 14.2205398 -2.625 7.1875 C-6.23277515 7.1875 -7.68795544 8.1779432 -10.625 10.1875 Z M7.375 10.1875 C6.93830398 13.62964258 6.81184708 17.09899308 6.625 20.5625 C6.55667969 21.53445312 6.48835938 22.50640625 6.41796875 23.5078125 C6.36769531 24.44109375 6.31742188 25.374375 6.265625 26.3359375 C6.21438477 27.19364746 6.16314453 28.05135742 6.11035156 28.93505859 C6.18601984 31.26109899 6.18601984 31.26109899 7.75634766 32.95654297 C10.69468593 35.19109826 13.76074081 34.95432199 17.375 35.1875 C19.78612739 32.77637261 18.56046779 26.55184528 18.5625 23.3125 C18.57474609 22.29285156 18.58699219 21.27320313 18.59960938 20.22265625 C18.60154297 19.24425781 18.60347656 18.26585937 18.60546875 17.2578125 C18.60957764 16.35820801 18.61368652 15.45860352 18.61791992 14.53173828 C18.53094663 11.91660349 18.53094663 11.91660349 16.375 9.1875 C13.59200984 8.70944034 9.45436066 8.10813934 7.375 10.1875 Z " fill="#124AAD" transform="translate(192.625,89.8125)"/>
<path d="M0 0 C1.83884766 0.41378906 1.83884766 0.41378906 3.71484375 0.8359375 C9.65301864 2.15346642 15.60404515 3.40275285 21.5625 4.625 C22.64724609 4.85445313 23.73199219 5.08390625 24.84960938 5.3203125 C31.60373152 6.70083519 31.60373152 6.70083519 38.46484375 6.9609375 C42.41938162 7.00463405 44.03946346 7.40142687 47 10 C48.328125 12.84765625 48.328125 12.84765625 49.25 16.0625 C49.56453125 17.12597656 49.8790625 18.18945312 50.203125 19.28515625 C50.46609375 20.18105469 50.7290625 21.07695312 51 22 C51.84429676 24.27426046 51.84429676 24.27426046 54.50390625 24.8515625 C55.51324219 25.10679687 56.52257812 25.36203125 57.5625 25.625 C58.57441406 25.88539063 59.58632813 26.14578125 60.62890625 26.4140625 C61.41136719 26.60742188 62.19382812 26.80078125 63 27 C62.505 29.475 62.505 29.475 62 32 C59.36 32.33 56.72 32.66 54 33 C54.144375 33.80824219 54.28875 34.61648437 54.4375 35.44921875 C54.623125 36.51785156 54.80875 37.58648437 55 38.6875 C55.185625 39.74324219 55.37125 40.79898438 55.5625 41.88671875 C55.95068074 44.64904062 56.08259976 47.21742043 56 50 C52.98024799 50.92921998 50.80433368 51.00601079 47.69921875 50.4765625 C46.88646484 50.3425 46.07371094 50.2084375 45.23632812 50.0703125 C44.39521484 49.92335937 43.55410156 49.77640625 42.6875 49.625 C41.0248079 49.34594678 39.36204847 49.06729447 37.69921875 48.7890625 C36.89500488 48.65097168 36.09079102 48.51288086 35.26220703 48.37060547 C33.31820793 48.05213033 31.36456188 47.7935682 29.41015625 47.546875 C25.38907948 46.90202878 21.6297184 45.84103114 17.75 44.625 C17.04359375 44.41617188 16.3371875 44.20734375 15.609375 43.9921875 C9.23620989 42.01264379 9.23620989 42.01264379 7 39 C6.23217773 35.98486328 6.23217773 35.98486328 5.68359375 32.3203125 C5.58160172 31.67053436 5.47960968 31.02075623 5.37452698 30.35128784 C5.05055507 28.27745085 4.74300031 26.20163176 4.4375 24.125 C4.12625026 22.05594869 3.81139598 19.98759861 3.48976135 17.9201355 C3.19815925 16.03926197 2.91799087 14.15662636 2.63842773 12.27392578 C2.11430336 9.0432266 2.11430336 9.0432266 0.92602539 6.31591797 C0 4 0 4 0 0 Z M11 11 C11.06620705 23.30997036 11.06620705 23.30997036 14 35 C17.90554273 37.50885857 21.40409099 38 26 38 C25.27146116 29.16167355 24.52439604 20.21375981 21 12 C17.7 11.67 14.4 11.34 11 11 Z M30 14 C30.12518027 28.51133652 30.12518027 28.51133652 36 41 C38.16675925 41.49802293 38.16675925 41.49802293 40.5625 41.6875 C41.36816406 41.77386719 42.17382812 41.86023438 43.00390625 41.94921875 C43.66261719 41.96597656 44.32132812 41.98273438 45 42 C46.2909425 40.94289953 46.2909425 40.94289953 46.01953125 38.515625 C45.49191311 30.19319547 43.76483354 22.85727114 41 15 C37.37 14.67 33.74 14.34 30 14 Z " fill="#124AAD" transform="translate(358,107)"/>
<path d="M0 0 C0.20371447 5.23546198 -0.49436396 9.79515554 -1.875 14.8125 C-2.24817389 16.22080461 -2.61927248 17.6296608 -2.98828125 19.0390625 C-3.25439209 20.05468262 -3.25439209 20.05468262 -3.52587891 21.09082031 C-4.32895406 24.3246245 -4.89013672 27.59715698 -5.41015625 30.88671875 C-6.20728909 33.7426715 -7.16736617 35.65096723 -9 38 C-11.87109375 39.2578125 -11.87109375 39.2578125 -15.4375 40.125 C-16.07985596 40.28186279 -16.72221191 40.43872559 -17.3840332 40.6003418 C-23.10292825 41.93171406 -28.88855685 42.90329668 -34.6875 43.8125 C-35.54851318 43.94865723 -36.40952637 44.08481445 -37.29663086 44.22509766 C-38.11010986 44.34288574 -38.92358887 44.46067383 -39.76171875 44.58203125 C-40.48319092 44.68749268 -41.20466309 44.7929541 -41.94799805 44.90161133 C-44.23435879 45.01123695 -45.86860804 44.84613048 -48 44 C-49.34730281 39.95809156 -48.05639455 37.15536113 -46.8125 33.25 C-45.40519298 28.72741812 -44.01534213 24.23035923 -42.94921875 19.61328125 C-42.70691528 18.58895996 -42.70691528 18.58895996 -42.4597168 17.54394531 C-42.02230643 15.6586439 -41.60437107 13.76885539 -41.1875 11.87890625 C-40 9 -40 9 -37.875 7.67578125 C-34.27111588 6.82867262 -30.65637113 6.18856057 -27 5.625 C-20.35742098 4.54253221 -14.11035882 2.97469664 -7.734375 0.76953125 C-5.01221301 0.00343709 -2.81058612 -0.1487354 0 0 Z M-17 12 C-17.87294096 14.79399499 -18.57556938 17.46237958 -19.1875 20.3125 C-19.45336914 21.45235352 -19.45336914 21.45235352 -19.72460938 22.61523438 C-20.59246522 26.47199917 -21.23032884 30.02087075 -21 34 C-18.69 33.34 -16.38 32.68 -14 32 C-13.32636628 29.27238489 -12.66090556 26.543201 -12 23.8125 C-11.80921875 23.04357422 -11.6184375 22.27464844 -11.421875 21.48242188 C-10.48376579 17.57921747 -9.74042792 14.04770205 -10 10 C-14.04622502 9.63019987 -14.04622502 9.63019987 -17 12 Z M-32.64453125 14.4609375 C-34.55515756 18.0399205 -35.60511114 21.72709209 -36.6875 25.625 C-37.02491211 26.78902344 -37.02491211 26.78902344 -37.36914062 27.9765625 C-38.56838616 31.92482422 -38.56838616 31.92482422 -39 36 C-35.71023192 37.09658936 -34.28696233 36.79953138 -31 36 C-28.41540233 28.33035667 -26.36620268 21.11138929 -26 13 C-29.65332045 12.57937514 -29.65332045 12.57937514 -32.64453125 14.4609375 Z " fill="#124AAD" transform="translate(137,42)"/>
<path d="M0 0 C4.31016551 -0.13082906 6.53119088 0.56419063 10.3125 2.6875 C17.58249715 6.50855968 25.13969968 8.74564991 33 11 C33 11.66 33 12.32 33 13 C33.66 13 34.32 13 35 13 C36.83298211 20.71074475 38.31892303 28.38964615 39.3125 36.25 C39.46307861 37.35782837 39.46307861 37.35782837 39.61669922 38.48803711 C39.83248753 40.31711013 39.92647244 42.15971024 40 44 C39.34 44.66 38.68 45.32 38 46 C27.34562152 45.40809008 15.20420662 42.44474194 6 37 C2.05933575 32.55479154 2.26185967 26.97506356 1.875 21.3125 C1.72696589 19.41272894 1.57853059 17.5129891 1.4296875 15.61328125 C1.32672363 14.22423584 1.32672363 14.22423584 1.22167969 12.80712891 C0.88399228 8.53099477 0.4480511 4.26579565 0 0 Z M8 10 C8.24027445 12.0938202 8.48082744 14.18760875 8.72265625 16.28125 C8.91357808 18.15282177 9.06498558 20.02870795 9.18359375 21.90625 C9.24675781 22.8653125 9.30992187 23.824375 9.375 24.8125 C9.42398437 25.70582031 9.47296875 26.59914063 9.5234375 27.51953125 C10.08365924 30.4354395 10.92689285 31.88786966 13 34 C16.12586875 34.33397787 16.12586875 34.33397787 19 34 C18.7610845 31.88389125 18.52131503 29.76787557 18.27734375 27.65234375 C18.09167833 25.87675472 17.93825778 24.09751272 17.81640625 22.31640625 C17.75324219 21.44886719 17.69007813 20.58132812 17.625 19.6875 C17.55152344 18.48673828 17.55152344 18.48673828 17.4765625 17.26171875 C16.89229963 14.48886465 15.94044232 13.05002024 14 11 C10.89802603 10.19053578 10.89802603 10.19053578 8 10 Z M23 15 C21.51171121 18.9419541 22.42172948 22.51346434 23.25 26.5 C23.37246094 27.16386719 23.49492187 27.82773437 23.62109375 28.51171875 C24.39735755 32.36229464 25.34535716 35.07691013 28 38 C29.65 37.67 31.3 37.34 33 37 C32.74475503 34.08119874 32.47149924 31.1660237 32.1875 28.25 C32.11724609 27.425 32.04699219 26.6 31.97460938 25.75 C31.45431093 19.75518885 31.45431093 19.75518885 28 15 C25.37374861 14.66574265 25.37374861 14.66574265 23 15 Z " fill="#124AAD" transform="translate(330,32)"/>
<path d="M0 0 C0.70318359 0.12697266 1.40636719 0.25394531 2.13085938 0.38476562 C6.31888787 1.2051011 9.55641058 2.37676273 13.0625 4.8125 C12.28345672 22.66899203 12.28345672 22.66899203 10.0625 30.8125 C7.4225 31.4725 4.7825 32.1325 2.0625 32.8125 C2.7225 26.5425 3.3825 20.2725 4.0625 13.8125 C1.835 14.575625 -0.3925 15.33875 -2.6875 16.125 C-3.72922363 16.47558472 -3.72922363 16.47558472 -4.79199219 16.83325195 C-8.28601473 18.05656308 -11.23030364 19.25643353 -13.9375 21.8125 C-14.2675 22.8025 -14.5975 23.7925 -14.9375 24.8125 C-14.39480469 24.5959375 -13.85210937 24.379375 -13.29296875 24.15625 C-12.57753906 23.8778125 -11.86210937 23.599375 -11.125 23.3125 C-10.41730469 23.0340625 -9.70960938 22.755625 -8.98046875 22.46875 C-6.9375 21.8125 -6.9375 21.8125 -3.9375 21.8125 C-3.6321479 27.61418982 -3.84213858 31.68580765 -6.9375 36.8125 C-11.83541281 41.04091394 -20.37546956 45.8125 -26.9375 45.8125 C-27.29178512 39.67155791 -26.27329646 34.57591748 -24.65234375 28.65234375 C-24.0618374 26.30645241 -23.73270881 24.21089688 -23.5625 21.8125 C-22.72342733 17.78495116 -21.30889887 17.11077456 -17.9375 14.8125 C-15.40688176 13.61960212 -12.81513979 12.64438617 -10.1875 11.6875 C-5.25609706 10.26740964 -5.25609706 10.26740964 -1.9375 6.8125 C-4.9075 6.1525 -7.8775 5.4925 -10.9375 4.8125 C-11.2675 3.4925 -11.5975 2.1725 -11.9375 0.8125 C-8.03178488 -1.97729651 -4.39183332 -0.90879322 0 0 Z M-11.9375 29.8125 C-13.5875 31.4625 -15.2375 33.1125 -16.9375 34.8125 C-16.6075 35.4725 -16.2775 36.1325 -15.9375 36.8125 C-14.2875 35.4925 -12.6375 34.1725 -10.9375 32.8125 C-11.2675 31.8225 -11.5975 30.8325 -11.9375 29.8125 Z " fill="#124AAD" transform="translate(170.9375,29.1875)"/>
<path d="M0 0 C7.81237304 1.1526452 13.78727761 4.07627235 20 9 C20 9.66 20 10.32 20 11 C20.721875 11.226875 21.44375 11.45375 22.1875 11.6875 C26.37897125 13.64351992 29.1543533 16.16527535 31.10546875 20.3984375 C32.42059107 25.69338413 32.47129234 30.93759151 32.625 36.375 C32.68300781 38.05142578 32.68300781 38.05142578 32.7421875 39.76171875 C32.83606555 42.50765161 32.92174911 45.25358476 33 48 C29.20947266 47.25927734 29.20947266 47.25927734 27.32421875 44.92578125 C25.72517683 41.39279484 25.21040085 38.00223747 24.8125 34.1875 C24.73064453 33.49462891 24.64878906 32.80175781 24.56445312 32.08789062 C24.36575707 30.39313016 24.18140797 28.69669806 24 27 C17.40251844 24.70309901 10.75138119 22.79467095 4 21 C4 26.94 4 32.88 4 39 C2.02 39 0.04 39 -2 39 C-4.63758803 34.32966409 -4.76946916 29.63257273 -5.25 24.375 C-5.353125 23.40820312 -5.45625 22.44140625 -5.5625 21.4453125 C-5.65015625 20.52234375 -5.7378125 19.599375 -5.828125 18.6484375 C-5.9096582 17.80458496 -5.99119141 16.96073242 -6.07519531 16.09130859 C-6 14 -6 14 -4 12 C3.51016823 12.41591122 10.89541833 14.64228484 18 17 C17.01 16.34 16.02 15.68 15 15 C15 14.34 15 13.68 15 13 C14.45859375 12.73960938 13.9171875 12.47921875 13.359375 12.2109375 C10.58425394 10.7866204 7.91809589 9.24138613 5.25 7.625 C4.26515625 7.03976563 3.2803125 6.45453125 2.265625 5.8515625 C1.51796875 5.24054688 0.7703125 4.62953125 0 4 C0 2.68 0 1.36 0 0 Z " fill="#124AAD" transform="translate(315,92)"/>
<path d="M0 0 C-3.4971111 16.4066595 -3.4971111 16.4066595 -7 19 C-9.91796875 19.51171875 -9.91796875 19.51171875 -13.1875 19.6875 C-14.81751953 19.78611328 -14.81751953 19.78611328 -16.48046875 19.88671875 C-17.72763672 19.94279297 -17.72763672 19.94279297 -19 20 C-17.33482014 25.02169423 -14.6380158 27.4747634 -10.77734375 30.9375 C-8.65986335 33.39470802 -8.00507712 34.75064472 -8 38 C-10.08875174 41.0792938 -11.56874801 41.88740711 -15.171875 42.828125 C-16.35265625 42.96734375 -17.5334375 43.1065625 -18.75 43.25 C-19.98492187 43.39695313 -21.21984375 43.54390625 -22.4921875 43.6953125 C-26.37259671 44.03236363 -30.11071262 44.1555715 -34 44 C-34.33 42.35 -34.66 40.7 -35 39 C-31.71508627 36.81005752 -30.16904361 36.64722661 -26.3125 36.375 C-25.31863281 36.30023438 -24.32476562 36.22546875 -23.30078125 36.1484375 C-22.54152344 36.09945312 -21.78226563 36.05046875 -21 36 C-21.52268547 32.19092962 -22.33557294 30.19800015 -25 27.4375 C-27.33763612 25.00433548 -28.70501126 23.41596964 -29 20 C-28.46275478 17.39294689 -27.86198048 14.92270736 -27.125 12.375 C-26.84462891 11.3540625 -26.84462891 11.3540625 -26.55859375 10.3125 C-25.17672294 5.35344587 -25.17672294 5.35344587 -24 3 C-22.22167969 2.49755859 -22.22167969 2.49755859 -19.921875 2.1484375 C-19.09042969 2.01953125 -18.25898437 1.890625 -17.40234375 1.7578125 C-16.52707031 1.63148437 -15.65179688 1.50515625 -14.75 1.375 C-13.46029297 1.17390625 -13.46029297 1.17390625 -12.14453125 0.96875 C-8.06918223 0.35336602 -4.13449441 -0.18793156 0 0 Z M-17 9 C-17 10.32 -17 11.64 -17 13 C-15.35 12.67 -13.7 12.34 -12 12 C-11.67 10.68 -11.34 9.36 -11 8 C-14.7763932 7.7018576 -14.7763932 7.7018576 -17 9 Z " fill="#124AAD" transform="translate(102,115)"/>
<path d="M0 0 C0 0.66 0 1.32 0 2 C0.66 2 1.32 2 2 2 C2.8125 4.6875 2.8125 4.6875 3 8 C0.17240868 12.67640104 -3.10083078 13.517149 -8.3125 14.8125 C-18.53535797 16.81810554 -28.31337476 16.45600855 -37.78125 11.5625 C-40.4666666 9.67136155 -41.07783573 8.10182526 -42 5 C-37.55674339 -1.24832961 -33.38888714 -2.97281365 -26.0625 -4.6875 C-16.98488842 -5.6137869 -7.82427509 -5.21618339 0 0 Z " fill="#154ABC" transform="translate(265,197)"/>
<path d="M0 0 C-1.23429542 20.7231704 -1.23429542 20.7231704 -5.375 26.0625 C-8 28 -8 28 -12 29 C-11.34 23.72 -10.68 18.44 -10 13 C-12.96438917 13.73061713 -15.91996218 14.48321477 -18.875 15.25 C-19.71675781 15.45496094 -20.55851562 15.65992188 -21.42578125 15.87109375 C-22.63427734 16.19013672 -22.63427734 16.19013672 -23.8671875 16.515625 C-24.61081543 16.70415039 -25.35444336 16.89267578 -26.12060547 17.08691406 C-28.58359011 18.2835317 -29.05071163 19.47883609 -30 22 C-30.35918333 23.63627961 -30.6699466 25.2837652 -30.9375 26.9375 C-31.68326967 30.82697564 -32.33370475 33.93869805 -35 37 C-37.6875 37.8125 -37.6875 37.8125 -40 38 C-41.32488413 34.02534762 -40.19936974 31.1490372 -39.125 27.25 C-37.75045484 22.16892273 -36.64336003 17.22901133 -36 12 C-35.41734375 11.82984375 -34.8346875 11.6596875 -34.234375 11.484375 C-27.43669796 9.47499877 -20.71388257 7.2725685 -14 5 C-14 4.34 -14 3.68 -14 3 C-19.28 1.35 -24.56 -0.3 -30 -2 C-30 -2.66 -30 -3.32 -30 -4 C-19.82180369 -9.75289357 -10.01440308 -4.11249781 0 0 Z " fill="#124AAD" transform="translate(154,113)"/>
<path d="M0 0 C5.07364878 0.05271323 8.01590049 0.7105979 11.8125 4.3125 C12.163125 5.199375 12.51375 6.08625 12.875 7 C13.3390625 8.1446875 13.3390625 8.1446875 13.8125 9.3125 C16.36025306 10.20636164 16.36025306 10.20636164 18.8125 10.3125 C19.9375 14.0625 19.9375 14.0625 18.8125 16.3125 C16.5025 16.3125 14.1925 16.3125 11.8125 16.3125 C11.8125 17.3025 11.8125 18.2925 11.8125 19.3125 C9.1725 19.3125 6.5325 19.3125 3.8125 19.3125 C7.6063007 26.03787396 10.62830765 29.39011667 17.8125 32.3125 C18.8125 33.3125 18.8125 33.3125 18.91015625 35.16015625 C18.87760417 37.2109375 18.84505208 39.26171875 18.8125 41.3125 C17.3275 41.8075 17.3275 41.8075 15.8125 42.3125 C15.07 41.549375 14.3275 40.78625 13.5625 40 C9.31205036 35.84615148 6.47511189 33.45773338 0.375 33.125 C-3.03143404 33.304286 -4.30386816 33.77456302 -7.1875 35.3125 C-9.9375 35.4375 -9.9375 35.4375 -12.1875 35.3125 C-13.58685013 32.51379973 -13.44015405 30.40751208 -13.1875 27.3125 C-12.1875 25.4375 -12.1875 25.4375 -10.1875 24.3125 C-7.46871737 24.07118793 -4.9282889 24.1777071 -2.1875 24.3125 C-2.661875 23.57 -3.13625 22.8275 -3.625 22.0625 C-6.28658913 17.37810313 -6.32363564 13.49794587 -6.3125 8.125 C-6.31507813 6.87332031 -6.31765625 5.62164062 -6.3203125 4.33203125 C-6.1051666 -0.5593741 -4.4664525 0.11452442 0 0 Z M0.8125 6.3125 C0.8125 7.6325 0.8125 8.9525 0.8125 10.3125 C2.7925 10.8075 2.7925 10.8075 4.8125 11.3125 C5.1425 10.3225 5.4725 9.3325 5.8125 8.3125 C5.4825 7.6525 5.1525 6.9925 4.8125 6.3125 C3.4925 6.3125 2.1725 6.3125 0.8125 6.3125 Z " fill="#124AAD" transform="translate(209.1875,21.6875)"/>
<path d="M0 0 C2.625 0.375 2.625 0.375 5 1 C4.67 2.32 4.34 3.64 4 5 C4.886875 4.67 5.77375 4.34 6.6875 4 C9.70923347 3.08777857 11.88373706 2.81669042 15 3 C15.36980644 7.31440851 14.32498946 9.41564125 12 13 C12 13.66 12 14.32 12 15 C16.32918697 14.20231439 20.41324701 12.96861537 24.59765625 11.62109375 C27 11 27 11 31 11 C32.23697002 14.82871673 32.14786169 18.64706566 32.125 22.625 C32.13080078 23.6459375 32.13080078 23.6459375 32.13671875 24.6875 C32.12672061 29.74655878 32.12672061 29.74655878 31 32 C29.02 32 27.04 32 25 32 C23.6728739 28.0186217 23.93084087 24.14954773 24 20 C17.82777121 21.24028238 11.93317878 22.89603589 6 25 C5.95101563 25.81984375 5.90203125 26.6396875 5.8515625 27.484375 C5.77679688 28.56203125 5.70203125 29.6396875 5.625 30.75 C5.55539062 31.81734375 5.48578125 32.8846875 5.4140625 33.984375 C5.0271777 36.80206432 4.44313834 38.5830366 3 41 C1.68 41 0.36 41 -1 41 C-1.27743433 38.29199966 -1.52249031 35.58727242 -1.75 32.875 C-1.83121094 32.11445313 -1.91242188 31.35390625 -1.99609375 30.5703125 C-2.42189594 25.08219536 -1.53387999 22.44412181 2 18 C2.76939681 15.77397385 2.76939681 15.77397385 3 14 C1.35 13.67 -0.3 13.34 -2 13 C-2.05391993 11.20866022 -2.09275571 9.41686101 -2.125 7.625 C-2.14820313 6.62726563 -2.17140625 5.62953125 -2.1953125 4.6015625 C-2 2 -2 2 0 0 Z " fill="#124AAD" transform="translate(264,98)"/>
<path d="M0 0 C5.84179617 0.15690775 11.72139347 0.72139347 16 5 C16.14507695 7.74485593 16.18652423 10.38480543 16.125 13.125 C16.11597656 13.87910156 16.10695313 14.63320313 16.09765625 15.41015625 C16.0740687 17.27357254 16.03819719 19.13682593 16 21 C13.03 20.34 10.06 19.68 7 19 C7.5775 20.27875 8.155 21.5575 8.75 22.875 C9.07484375 23.59429687 9.3996875 24.31359375 9.734375 25.0546875 C11.21929686 27.3370674 12.50415408 28.00375898 15 29 C15.33 28.34 15.66 27.68 16 27 C17.65 27 19.3 27 21 27 C21.66 30.63 22.32 34.26 23 38 C17.62236834 37.53237986 13.34216686 36.0132642 8.37890625 33.921875 C5.6145611 32.85063452 2.94510684 32.31001125 0 32 C-0.33 32.99 -0.66 33.98 -1 35 C-2.485 35.495 -2.485 35.495 -4 36 C-5.5625 34.4375 -5.5625 34.4375 -7 32 C-6.6875 28.25 -6.6875 28.25 -6 25 C-3.69 25.33 -1.38 25.66 1 26 C0.71125 25.47792969 0.4225 24.95585938 0.125 24.41796875 C-2.97677756 18.26826394 -3.8933996 12.85632251 -3 6 C-1.4025974 1.4025974 -1.4025974 1.4025974 0 0 Z M5 6 C4.3185177 7.89179203 4.3185177 7.89179203 4 10 C4.66 10.66 5.32 11.32 6 12 C6.99 12 7.98 12 9 12 C9 10.35 9 8.7 9 7 C7.68 6.67 6.36 6.34 5 6 Z " fill="#124AAD" transform="translate(305,24)"/>
<path d="M0 0 C0.61875 0.680625 0.61875 0.680625 1.25 1.375 C2.93416435 3.0914384 2.93416435 3.0914384 5.125 4.0625 C7 5 7 5 8 7 C8.13677734 10.33736713 8.04283944 13.6585233 8 17 C11.3 16.34 14.6 15.68 18 15 C20.02929235 21.08787705 19.42351711 27.09267705 17 33 C15.68 32.67 14.36 32.34 13 32 C12.34 29.03 11.68 26.06 11 23 C10.34 23 9.68 23 9 23 C8.01 26.96 7.02 30.92 6 35 C4.35 35 2.7 35 1 35 C1 32.03 1 29.06 1 26 C-1.62744885 26.78693049 -1.62744885 26.78693049 -4 29 C-4.75964864 32.3221254 -4.92981522 35.59922821 -5 39 C-7.475 39.495 -7.475 39.495 -10 40 C-10.16249454 37.58063683 -10.28097817 35.17218141 -10.375 32.75 C-10.42527344 32.06808594 -10.47554688 31.38617188 -10.52734375 30.68359375 C-10.5859375 28.671875 -10.5859375 28.671875 -10 25 C-7.27623094 22.69385089 -5.06790328 21.34634701 -1.6875 20.25 C0.17851924 19.14606612 0.17851924 19.14606612 0.46484375 17.1015625 C0.72420144 15.07644084 0.86855314 13.03742628 1 11 C-0.65 10.67 -2.3 10.34 -4 10 C-3.38461538 3.47692308 -3.38461538 3.47692308 -1.4375 1.0625 C-0.7259375 0.5365625 -0.7259375 0.5365625 0 0 Z " fill="#124AAD" transform="translate(273,24)"/>
<path d="M0 0 C1.67542976 0.28604898 3.34385343 0.61781233 5 1 C5.226875 1.928125 5.45375 2.85625 5.6875 3.8125 C6.65667862 7.18003485 6.65667862 7.18003485 9.5 8.1875 C12.71121669 10.5156321 12.63365541 11.85862118 13.3125 15.6875 C13.56245341 17.45551905 13.79818568 19.22584132 14 21 C15.299375 20.979375 16.59875 20.95875 17.9375 20.9375 C19.29165633 20.91600546 20.64756083 20.92851801 22 21 C23 22 23 22 23.0625 24.5625 C23.041875 25.366875 23.02125 26.17125 23 27 C20.69 27 18.38 27 16 27 C16.33 29.97 16.66 32.94 17 36 C14.6875 36.3125 14.6875 36.3125 12 36 C10.14628083 33.61664678 9.11624671 31.81372698 8.6875 28.8125 C8.460625 28.214375 8.23375 27.61625 8 27 C5.12935917 25.73751094 5.12935917 25.73751094 2 25 C1.01 24.67 0.02 24.34 -1 24 C-1.33 22.35 -1.66 20.7 -2 19 C0.64 19 3.28 19 6 19 C5.88658466 16.59122743 5.88658466 16.59122743 5 14 C4.175 13.608125 3.35 13.21625 2.5 12.8125 C0 11 0 11 -0.5859375 8.62890625 C-0.85537337 6.06198348 -1.06474779 3.58066208 -1 1 C-0.67 0.67 -0.34 0.34 0 0 Z " fill="#124AAD" transform="translate(377,47)"/>
</svg>
